# xmcd CD database file
#
# Track frame offsets:
#	150
#	22256
#	42513
#	73965
#	105900
#	127241
#	149486
#	169817
#	193776
#
# Disc length: 2725 seconds
#
# Revision: 0
# Processed by: cddbd v1.5.2PL0 Copyright (c) Steve Scherf et al.
# Submitted via: CDex 1.70beta2
#
DISCID=8f0aa309
DTITLE=Mark Egan - Direction Home
DYEAR=2015
DGENRE=Jazz
TTITLE0=Summer Fun
TTITLE1=Small Town Blues
TTITLE2=Mountain People
TTITLE3=After the Storm
TTITLE4=Aftermath
TTITLE5=Direction Home
TTITLE6=Jungle Walk
TTITLE7=Gratitude
TTITLE8=The Path Home
EXTD=YEAR: 2015
EXTT0=
EXTT1=
EXTT2=
EXTT3=
EXTT4=
EXTT5=
EXTT6=
EXTT7=
EXTT8=
PLAYORDER=
